<mxfile host="app.diagrams.net" modified="2021-04-30T09:39:11.799Z" agent="5.0 (Windows NT 10.0; Win64; x64) AppleWebKit/537.36 (KHTML, like Gecko) Chrome/90.0.4430.93 Safari/537.36" etag="gnT4ZHb5Fl0gSdGwufQf" version="14.6.9" type="github">
  <diagram id="R2lEEEUBdFMjLlhIrx00" name="Page-1">
    <mxGraphModel dx="1422" dy="762" grid="1" gridSize="10" guides="1" tooltips="1" connect="1" arrows="1" fold="1" page="1" pageScale="1" pageWidth="850" pageHeight="1100" math="0" shadow="0" extFonts="Permanent Marker^https://fonts.googleapis.com/css?family=Permanent+Marker">
      <root>
        <mxCell id="0" />
        <mxCell id="1" parent="0" />
        <mxCell id="aY1VXk2B5gPlkpk_qp6a-1" value="Contrato" style="whiteSpace=wrap;html=1;align=center;" parent="1" vertex="1">
          <mxGeometry x="180" y="320" width="110" height="40" as="geometry" />
        </mxCell>
        <mxCell id="A1iUQTO0Adb4exHNpf4P-2" value="" style="endArrow=none;html=1;entryX=0.5;entryY=1;entryDx=0;entryDy=0;exitX=0.5;exitY=0;exitDx=0;exitDy=0;startArrow=none;" parent="1" source="A1iUQTO0Adb4exHNpf4P-10" target="A1iUQTO0Adb4exHNpf4P-9" edge="1">
          <mxGeometry width="50" height="50" relative="1" as="geometry">
            <mxPoint x="415" y="360" as="sourcePoint" />
            <mxPoint x="450" y="370" as="targetPoint" />
          </mxGeometry>
        </mxCell>
        <mxCell id="A1iUQTO0Adb4exHNpf4P-4" value="" style="endArrow=none;html=1;entryX=1;entryY=0.5;entryDx=0;entryDy=0;exitX=0;exitY=0.5;exitDx=0;exitDy=0;startArrow=none;" parent="1" source="A1iUQTO0Adb4exHNpf4P-13" target="aY1VXk2B5gPlkpk_qp6a-1" edge="1">
          <mxGeometry width="50" height="50" relative="1" as="geometry">
            <mxPoint x="600" y="230" as="sourcePoint" />
            <mxPoint x="450" y="370" as="targetPoint" />
          </mxGeometry>
        </mxCell>
        <mxCell id="A1iUQTO0Adb4exHNpf4P-5" value="" style="endArrow=none;html=1;entryX=0.5;entryY=0;entryDx=0;entryDy=0;exitX=0.5;exitY=1;exitDx=0;exitDy=0;startArrow=none;" parent="1" source="A1iUQTO0Adb4exHNpf4P-12" target="aY1VXk2B5gPlkpk_qp6a-1" edge="1">
          <mxGeometry width="50" height="50" relative="1" as="geometry">
            <mxPoint x="415" y="110" as="sourcePoint" />
            <mxPoint x="450" y="370" as="targetPoint" />
          </mxGeometry>
        </mxCell>
        <mxCell id="A1iUQTO0Adb4exHNpf4P-6" value="Transporte" style="whiteSpace=wrap;html=1;align=center;" parent="1" vertex="1">
          <mxGeometry x="500" y="580" width="100" height="40" as="geometry" />
        </mxCell>
        <mxCell id="A1iUQTO0Adb4exHNpf4P-8" value="Fornecedor" style="whiteSpace=wrap;html=1;align=center;" parent="1" vertex="1">
          <mxGeometry x="185" y="80" width="100" height="40" as="geometry" />
        </mxCell>
        <mxCell id="A1iUQTO0Adb4exHNpf4P-9" value="Mercadoria" style="whiteSpace=wrap;html=1;align=center;" parent="1" vertex="1">
          <mxGeometry x="500" y="320" width="100" height="40" as="geometry" />
        </mxCell>
        <mxCell id="A1iUQTO0Adb4exHNpf4P-10" value="envia" style="shape=rhombus;perimeter=rhombusPerimeter;whiteSpace=wrap;html=1;align=center;" parent="1" vertex="1">
          <mxGeometry x="490" y="440" width="120" height="60" as="geometry" />
        </mxCell>
        <mxCell id="A1iUQTO0Adb4exHNpf4P-14" value="" style="endArrow=none;html=1;entryX=0.5;entryY=1;entryDx=0;entryDy=0;exitX=0.5;exitY=0;exitDx=0;exitDy=0;" parent="1" source="A1iUQTO0Adb4exHNpf4P-6" target="A1iUQTO0Adb4exHNpf4P-10" edge="1">
          <mxGeometry width="50" height="50" relative="1" as="geometry">
            <mxPoint x="415" y="450" as="sourcePoint" />
            <mxPoint x="415" y="250" as="targetPoint" />
          </mxGeometry>
        </mxCell>
        <mxCell id="A1iUQTO0Adb4exHNpf4P-12" value="assina" style="shape=rhombus;perimeter=rhombusPerimeter;whiteSpace=wrap;html=1;align=center;" parent="1" vertex="1">
          <mxGeometry x="175" y="180" width="120" height="60" as="geometry" />
        </mxCell>
        <mxCell id="A1iUQTO0Adb4exHNpf4P-15" value="" style="endArrow=none;html=1;entryX=0.5;entryY=0;entryDx=0;entryDy=0;exitX=0.5;exitY=1;exitDx=0;exitDy=0;" parent="1" source="A1iUQTO0Adb4exHNpf4P-8" target="A1iUQTO0Adb4exHNpf4P-12" edge="1">
          <mxGeometry width="50" height="50" relative="1" as="geometry">
            <mxPoint x="410" y="50" as="sourcePoint" />
            <mxPoint x="415" y="210" as="targetPoint" />
          </mxGeometry>
        </mxCell>
        <mxCell id="A1iUQTO0Adb4exHNpf4P-17" value="1" style="text;html=1;strokeColor=none;fillColor=none;align=center;verticalAlign=middle;whiteSpace=wrap;rounded=0;" parent="1" vertex="1">
          <mxGeometry x="550" y="520" width="40" height="20" as="geometry" />
        </mxCell>
        <mxCell id="A1iUQTO0Adb4exHNpf4P-18" value="M" style="text;html=1;strokeColor=none;fillColor=none;align=center;verticalAlign=middle;whiteSpace=wrap;rounded=0;" parent="1" vertex="1">
          <mxGeometry x="550" y="380" width="40" height="20" as="geometry" />
        </mxCell>
        <mxCell id="A1iUQTO0Adb4exHNpf4P-19" value="M" style="text;html=1;strokeColor=none;fillColor=none;align=center;verticalAlign=middle;whiteSpace=wrap;rounded=0;" parent="1" vertex="1">
          <mxGeometry x="460" y="320" width="40" height="20" as="geometry" />
        </mxCell>
        <mxCell id="A1iUQTO0Adb4exHNpf4P-20" value="1" style="text;html=1;strokeColor=none;fillColor=none;align=center;verticalAlign=middle;whiteSpace=wrap;rounded=0;" parent="1" vertex="1">
          <mxGeometry x="300" y="320" width="40" height="20" as="geometry" />
        </mxCell>
        <mxCell id="A1iUQTO0Adb4exHNpf4P-21" value="1" style="text;html=1;strokeColor=none;fillColor=none;align=center;verticalAlign=middle;whiteSpace=wrap;rounded=0;" parent="1" vertex="1">
          <mxGeometry x="240" y="260" width="40" height="20" as="geometry" />
        </mxCell>
        <mxCell id="A1iUQTO0Adb4exHNpf4P-22" value="1" style="text;html=1;strokeColor=none;fillColor=none;align=center;verticalAlign=middle;whiteSpace=wrap;rounded=0;" parent="1" vertex="1">
          <mxGeometry x="240" y="140" width="40" height="20" as="geometry" />
        </mxCell>
        <mxCell id="A1iUQTO0Adb4exHNpf4P-13" value="pertence" style="shape=rhombus;perimeter=rhombusPerimeter;whiteSpace=wrap;html=1;align=center;" parent="1" vertex="1">
          <mxGeometry x="340" y="310" width="120" height="60" as="geometry" />
        </mxCell>
        <mxCell id="A1iUQTO0Adb4exHNpf4P-24" value="" style="endArrow=none;html=1;entryX=1;entryY=0.5;entryDx=0;entryDy=0;exitX=0;exitY=0.5;exitDx=0;exitDy=0;" parent="1" source="A1iUQTO0Adb4exHNpf4P-9" target="A1iUQTO0Adb4exHNpf4P-13" edge="1">
          <mxGeometry width="50" height="50" relative="1" as="geometry">
            <mxPoint x="500" y="340" as="sourcePoint" />
            <mxPoint x="370" y="340" as="targetPoint" />
          </mxGeometry>
        </mxCell>
        <mxCell id="A1iUQTO0Adb4exHNpf4P-30" value="Tipo de transporte" style="ellipse;whiteSpace=wrap;html=1;align=center;" parent="1" vertex="1">
          <mxGeometry x="475" y="680" width="100" height="40" as="geometry" />
        </mxCell>
        <mxCell id="A1iUQTO0Adb4exHNpf4P-31" value="Código" style="ellipse;whiteSpace=wrap;html=1;align=center;" parent="1" vertex="1">
          <mxGeometry x="670" y="260" width="100" height="40" as="geometry" />
        </mxCell>
        <mxCell id="A1iUQTO0Adb4exHNpf4P-32" value="Código" style="ellipse;whiteSpace=wrap;html=1;align=center;" parent="1" vertex="1">
          <mxGeometry x="10" y="70" width="100" height="40" as="geometry" />
        </mxCell>
        <mxCell id="A1iUQTO0Adb4exHNpf4P-33" value="Fax" style="ellipse;whiteSpace=wrap;html=1;align=center;" parent="1" vertex="1">
          <mxGeometry x="80" y="20" width="100" height="40" as="geometry" />
        </mxCell>
        <mxCell id="A1iUQTO0Adb4exHNpf4P-34" value="Telefone" style="ellipse;whiteSpace=wrap;html=1;align=center;" parent="1" vertex="1">
          <mxGeometry x="195" y="10" width="100" height="40" as="geometry" />
        </mxCell>
        <mxCell id="A1iUQTO0Adb4exHNpf4P-35" value="Nome" style="ellipse;whiteSpace=wrap;html=1;align=center;" parent="1" vertex="1">
          <mxGeometry x="375" y="70" width="100" height="40" as="geometry" />
        </mxCell>
        <mxCell id="A1iUQTO0Adb4exHNpf4P-36" value="" style="endArrow=none;html=1;entryX=0;entryY=0.5;entryDx=0;entryDy=0;exitX=1;exitY=1;exitDx=0;exitDy=0;" parent="1" source="A1iUQTO0Adb4exHNpf4P-32" target="A1iUQTO0Adb4exHNpf4P-8" edge="1">
          <mxGeometry width="50" height="50" relative="1" as="geometry">
            <mxPoint x="400" y="390" as="sourcePoint" />
            <mxPoint x="450" y="340" as="targetPoint" />
          </mxGeometry>
        </mxCell>
        <mxCell id="A1iUQTO0Adb4exHNpf4P-37" value="" style="endArrow=none;html=1;entryX=0.25;entryY=0;entryDx=0;entryDy=0;" parent="1" source="A1iUQTO0Adb4exHNpf4P-33" target="A1iUQTO0Adb4exHNpf4P-8" edge="1">
          <mxGeometry width="50" height="50" relative="1" as="geometry">
            <mxPoint x="400" y="390" as="sourcePoint" />
            <mxPoint x="450" y="340" as="targetPoint" />
          </mxGeometry>
        </mxCell>
        <mxCell id="A1iUQTO0Adb4exHNpf4P-38" value="" style="endArrow=none;html=1;exitX=0.5;exitY=1;exitDx=0;exitDy=0;" parent="1" source="A1iUQTO0Adb4exHNpf4P-34" target="A1iUQTO0Adb4exHNpf4P-8" edge="1">
          <mxGeometry width="50" height="50" relative="1" as="geometry">
            <mxPoint x="400" y="390" as="sourcePoint" />
            <mxPoint x="251" y="78" as="targetPoint" />
          </mxGeometry>
        </mxCell>
        <mxCell id="A1iUQTO0Adb4exHNpf4P-39" value="" style="endArrow=none;html=1;entryX=1;entryY=0.25;entryDx=0;entryDy=0;exitX=0;exitY=0.5;exitDx=0;exitDy=0;" parent="1" source="A1iUQTO0Adb4exHNpf4P-35" target="A1iUQTO0Adb4exHNpf4P-8" edge="1">
          <mxGeometry width="50" height="50" relative="1" as="geometry">
            <mxPoint x="400" y="390" as="sourcePoint" />
            <mxPoint x="450" y="340" as="targetPoint" />
          </mxGeometry>
        </mxCell>
        <mxCell id="A1iUQTO0Adb4exHNpf4P-43" value="" style="endArrow=none;html=1;entryX=0;entryY=1;entryDx=0;entryDy=0;" parent="1" target="aY1VXk2B5gPlkpk_qp6a-1" edge="1">
          <mxGeometry width="50" height="50" relative="1" as="geometry">
            <mxPoint x="130" y="400" as="sourcePoint" />
            <mxPoint x="450" y="340" as="targetPoint" />
          </mxGeometry>
        </mxCell>
        <mxCell id="A1iUQTO0Adb4exHNpf4P-44" value="" style="endArrow=none;html=1;entryX=0;entryY=0.25;entryDx=0;entryDy=0;exitX=1;exitY=1;exitDx=0;exitDy=0;" parent="1" source="A1iUQTO0Adb4exHNpf4P-52" target="aY1VXk2B5gPlkpk_qp6a-1" edge="1">
          <mxGeometry width="50" height="50" relative="1" as="geometry">
            <mxPoint x="400" y="390" as="sourcePoint" />
            <mxPoint x="450" y="340" as="targetPoint" />
          </mxGeometry>
        </mxCell>
        <mxCell id="A1iUQTO0Adb4exHNpf4P-45" value="" style="endArrow=none;html=1;entryX=0.25;entryY=1;entryDx=0;entryDy=0;" parent="1" source="A1iUQTO0Adb4exHNpf4P-49" target="aY1VXk2B5gPlkpk_qp6a-1" edge="1">
          <mxGeometry width="50" height="50" relative="1" as="geometry">
            <mxPoint x="180" y="428" as="sourcePoint" />
            <mxPoint x="450" y="340" as="targetPoint" />
          </mxGeometry>
        </mxCell>
        <mxCell id="A1iUQTO0Adb4exHNpf4P-46" value="" style="endArrow=none;html=1;exitX=0.5;exitY=1;exitDx=0;exitDy=0;" parent="1" source="aY1VXk2B5gPlkpk_qp6a-1" target="A1iUQTO0Adb4exHNpf4P-48" edge="1">
          <mxGeometry width="50" height="50" relative="1" as="geometry">
            <mxPoint x="400" y="390" as="sourcePoint" />
            <mxPoint x="450" y="340" as="targetPoint" />
          </mxGeometry>
        </mxCell>
        <mxCell id="A1iUQTO0Adb4exHNpf4P-47" value="" style="endArrow=none;html=1;entryX=0;entryY=0.5;entryDx=0;entryDy=0;exitX=1;exitY=0.5;exitDx=0;exitDy=0;" parent="1" source="A1iUQTO0Adb4exHNpf4P-51" target="aY1VXk2B5gPlkpk_qp6a-1" edge="1">
          <mxGeometry width="50" height="50" relative="1" as="geometry">
            <mxPoint x="110" y="330" as="sourcePoint" />
            <mxPoint x="450" y="340" as="targetPoint" />
          </mxGeometry>
        </mxCell>
        <mxCell id="A1iUQTO0Adb4exHNpf4P-48" value="Nº contrato" style="ellipse;whiteSpace=wrap;html=1;align=center;" parent="1" vertex="1">
          <mxGeometry x="200" y="480" width="100" height="40" as="geometry" />
        </mxCell>
        <mxCell id="A1iUQTO0Adb4exHNpf4P-49" value="Data assinatura" style="ellipse;whiteSpace=wrap;html=1;align=center;" parent="1" vertex="1">
          <mxGeometry x="130" y="430" width="100" height="40" as="geometry" />
        </mxCell>
        <mxCell id="A1iUQTO0Adb4exHNpf4P-50" value="Moeda" style="ellipse;whiteSpace=wrap;html=1;align=center;" parent="1" vertex="1">
          <mxGeometry x="40" y="390" width="100" height="40" as="geometry" />
        </mxCell>
        <mxCell id="A1iUQTO0Adb4exHNpf4P-51" value="Prazo de validade" style="ellipse;whiteSpace=wrap;html=1;align=center;" parent="1" vertex="1">
          <mxGeometry x="30" y="320" width="100" height="40" as="geometry" />
        </mxCell>
        <mxCell id="A1iUQTO0Adb4exHNpf4P-52" value="Valor" style="ellipse;whiteSpace=wrap;html=1;align=center;" parent="1" vertex="1">
          <mxGeometry x="50" y="260" width="100" height="40" as="geometry" />
        </mxCell>
        <mxCell id="A1iUQTO0Adb4exHNpf4P-53" value="Data partida" style="ellipse;whiteSpace=wrap;html=1;align=center;" parent="1" vertex="1">
          <mxGeometry x="630" y="670" width="100" height="40" as="geometry" />
        </mxCell>
        <mxCell id="A1iUQTO0Adb4exHNpf4P-54" value="Nome" style="ellipse;whiteSpace=wrap;html=1;align=center;" parent="1" vertex="1">
          <mxGeometry x="690" y="340" width="100" height="40" as="geometry" />
        </mxCell>
        <mxCell id="A1iUQTO0Adb4exHNpf4P-55" value="" style="endArrow=none;html=1;entryX=1;entryY=1;entryDx=0;entryDy=0;exitX=0.25;exitY=0.075;exitDx=0;exitDy=0;exitPerimeter=0;" parent="1" source="A1iUQTO0Adb4exHNpf4P-53" target="A1iUQTO0Adb4exHNpf4P-6" edge="1">
          <mxGeometry width="50" height="50" relative="1" as="geometry">
            <mxPoint x="400" y="390" as="sourcePoint" />
            <mxPoint x="450" y="340" as="targetPoint" />
          </mxGeometry>
        </mxCell>
        <mxCell id="A1iUQTO0Adb4exHNpf4P-56" value="" style="endArrow=none;html=1;entryX=0.25;entryY=1;entryDx=0;entryDy=0;" parent="1" source="A1iUQTO0Adb4exHNpf4P-30" target="A1iUQTO0Adb4exHNpf4P-6" edge="1">
          <mxGeometry width="50" height="50" relative="1" as="geometry">
            <mxPoint x="525" y="678" as="sourcePoint" />
            <mxPoint x="450" y="340" as="targetPoint" />
          </mxGeometry>
        </mxCell>
        <mxCell id="A1iUQTO0Adb4exHNpf4P-57" value="" style="endArrow=none;html=1;entryX=1;entryY=0.75;entryDx=0;entryDy=0;exitX=0;exitY=0.5;exitDx=0;exitDy=0;" parent="1" source="A1iUQTO0Adb4exHNpf4P-54" target="A1iUQTO0Adb4exHNpf4P-9" edge="1">
          <mxGeometry width="50" height="50" relative="1" as="geometry">
            <mxPoint x="400" y="390" as="sourcePoint" />
            <mxPoint x="450" y="340" as="targetPoint" />
          </mxGeometry>
        </mxCell>
        <mxCell id="A1iUQTO0Adb4exHNpf4P-58" value="" style="endArrow=none;html=1;entryX=1;entryY=0.25;entryDx=0;entryDy=0;exitX=0;exitY=0.5;exitDx=0;exitDy=0;" parent="1" source="A1iUQTO0Adb4exHNpf4P-31" target="A1iUQTO0Adb4exHNpf4P-9" edge="1">
          <mxGeometry width="50" height="50" relative="1" as="geometry">
            <mxPoint x="400" y="390" as="sourcePoint" />
            <mxPoint x="450" y="340" as="targetPoint" />
          </mxGeometry>
        </mxCell>
        <mxCell id="A1iUQTO0Adb4exHNpf4P-59" value="Nº Transporte" style="ellipse;whiteSpace=wrap;html=1;align=center;" parent="1" vertex="1">
          <mxGeometry x="350" y="650" width="100" height="40" as="geometry" />
        </mxCell>
        <mxCell id="A1iUQTO0Adb4exHNpf4P-60" value="Data chegada" style="ellipse;whiteSpace=wrap;html=1;align=center;" parent="1" vertex="1">
          <mxGeometry x="690" y="610" width="100" height="40" as="geometry" />
        </mxCell>
        <mxCell id="A1iUQTO0Adb4exHNpf4P-61" value="" style="endArrow=none;html=1;entryX=0;entryY=0.75;entryDx=0;entryDy=0;exitX=1;exitY=0;exitDx=0;exitDy=0;" parent="1" source="A1iUQTO0Adb4exHNpf4P-59" target="A1iUQTO0Adb4exHNpf4P-6" edge="1">
          <mxGeometry width="50" height="50" relative="1" as="geometry">
            <mxPoint x="400" y="390" as="sourcePoint" />
            <mxPoint x="450" y="340" as="targetPoint" />
          </mxGeometry>
        </mxCell>
        <mxCell id="A1iUQTO0Adb4exHNpf4P-62" value="" style="endArrow=none;html=1;exitX=1;exitY=0.5;exitDx=0;exitDy=0;" parent="1" source="A1iUQTO0Adb4exHNpf4P-6" target="A1iUQTO0Adb4exHNpf4P-60" edge="1">
          <mxGeometry width="50" height="50" relative="1" as="geometry">
            <mxPoint x="400" y="390" as="sourcePoint" />
            <mxPoint x="692" y="630" as="targetPoint" />
          </mxGeometry>
        </mxCell>
        <mxCell id="PTNVsBNZ8Eqac8yfr_aA-1" value="Endereço" style="ellipse;whiteSpace=wrap;html=1;align=center;" vertex="1" parent="1">
          <mxGeometry x="320" y="20" width="100" height="40" as="geometry" />
        </mxCell>
        <mxCell id="PTNVsBNZ8Eqac8yfr_aA-2" value="" style="endArrow=none;html=1;exitX=0;exitY=1;exitDx=0;exitDy=0;" edge="1" parent="1" source="PTNVsBNZ8Eqac8yfr_aA-1">
          <mxGeometry width="50" height="50" relative="1" as="geometry">
            <mxPoint x="400" y="420" as="sourcePoint" />
            <mxPoint x="277" y="80" as="targetPoint" />
          </mxGeometry>
        </mxCell>
      </root>
    </mxGraphModel>
  </diagram>
</mxfile>
